<svg width="179" height="40" viewBox="0 0 179 40" fill="none" xmlns="http://www.w3.org/2000/svg">
<rect x="0.5" y="0.5" width="178" height="39" rx="19.5" fill="#FF834F"/>
<rect x="0.5" y="0.5" width="178" height="39" rx="19.5" stroke="#F8F7E5"/>
<path d="M24.612 25.506C24.492 25.338 24.438 25.122 24.45 24.858C24.462 24.594 24.618 24.366 24.918 24.174C25.11 24.054 25.314 24.006 25.53 24.03C25.746 24.042 25.956 24.15 26.16 24.354C26.508 24.702 26.874 24.972 27.258 25.164C27.642 25.356 28.122 25.452 28.698 25.452C28.878 25.44 29.076 25.416 29.292 25.38C29.508 25.332 29.694 25.236 29.85 25.092C30.018 24.936 30.102 24.702 30.102 24.39C30.102 24.126 30.012 23.916 29.832 23.76C29.652 23.604 29.412 23.472 29.112 23.364C28.824 23.256 28.5 23.154 28.14 23.058C27.768 22.95 27.384 22.83 26.988 22.698C26.604 22.566 26.25 22.398 25.926 22.194C25.602 21.978 25.338 21.696 25.134 21.348C24.93 21 24.828 20.562 24.828 20.034C24.828 19.434 24.996 18.924 25.332 18.504C25.668 18.084 26.1 17.76 26.628 17.532C27.168 17.304 27.732 17.19 28.32 17.19C28.692 17.19 29.082 17.238 29.49 17.334C29.898 17.418 30.288 17.562 30.66 17.766C31.032 17.958 31.344 18.216 31.596 18.54C31.728 18.72 31.806 18.936 31.83 19.188C31.854 19.44 31.74 19.668 31.488 19.872C31.308 20.016 31.098 20.082 30.858 20.07C30.618 20.046 30.42 19.962 30.264 19.818C30.06 19.554 29.784 19.344 29.436 19.188C29.1 19.032 28.71 18.954 28.266 18.954C28.086 18.954 27.888 18.978 27.672 19.026C27.468 19.062 27.288 19.152 27.132 19.296C26.976 19.428 26.898 19.644 26.898 19.944C26.898 20.22 26.988 20.442 27.168 20.61C27.348 20.766 27.588 20.898 27.888 21.006C28.2 21.102 28.53 21.198 28.878 21.294C29.238 21.39 29.604 21.504 29.976 21.636C30.348 21.768 30.69 21.942 31.002 22.158C31.314 22.374 31.566 22.656 31.758 23.004C31.95 23.34 32.046 23.772 32.046 24.3C32.046 24.912 31.866 25.434 31.506 25.866C31.146 26.298 30.696 26.628 30.156 26.856C29.616 27.072 29.064 27.18 28.5 27.18C27.792 27.18 27.084 27.06 26.376 26.82C25.668 26.568 25.08 26.13 24.612 25.506ZM38.3896 27.18C37.3696 27.18 36.4816 26.97 35.7256 26.55C34.9816 26.118 34.4056 25.536 33.9976 24.804C33.6016 24.072 33.4036 23.244 33.4036 22.32C33.4036 21.24 33.6196 20.322 34.0516 19.566C34.4956 18.798 35.0716 18.21 35.7796 17.802C36.4876 17.394 37.2376 17.19 38.0296 17.19C38.6416 17.19 39.2176 17.316 39.7576 17.568C40.3096 17.82 40.7956 18.168 41.2156 18.612C41.6356 19.044 41.9656 19.548 42.2056 20.124C42.4576 20.7 42.5836 21.312 42.5836 21.96C42.5716 22.248 42.4576 22.482 42.2416 22.662C42.0256 22.842 41.7736 22.932 41.4856 22.932H34.6096L34.0696 21.132H40.6756L40.2796 21.492V21.006C40.2556 20.658 40.1296 20.346 39.9016 20.07C39.6856 19.794 39.4096 19.578 39.0736 19.422C38.7496 19.254 38.4016 19.17 38.0296 19.17C37.6696 19.17 37.3336 19.218 37.0216 19.314C36.7096 19.41 36.4396 19.572 36.2116 19.8C35.9836 20.028 35.8036 20.334 35.6716 20.718C35.5396 21.102 35.4736 21.588 35.4736 22.176C35.4736 22.824 35.6056 23.376 35.8696 23.832C36.1456 24.276 36.4936 24.618 36.9136 24.858C37.3456 25.086 37.8016 25.2 38.2816 25.2C38.7256 25.2 39.0796 25.164 39.3436 25.092C39.6076 25.02 39.8176 24.936 39.9736 24.84C40.1416 24.732 40.2916 24.642 40.4236 24.57C40.6396 24.462 40.8436 24.408 41.0356 24.408C41.2996 24.408 41.5156 24.498 41.6836 24.678C41.8636 24.858 41.9536 25.068 41.9536 25.308C41.9536 25.632 41.7856 25.926 41.4496 26.19C41.1376 26.454 40.6996 26.688 40.1356 26.892C39.5716 27.084 38.9896 27.18 38.3896 27.18ZM49.6188 17.19C50.5068 17.19 51.1788 17.376 51.6348 17.748C52.1028 18.12 52.4208 18.618 52.5888 19.242C52.7688 19.854 52.8588 20.538 52.8588 21.294V25.902C52.8588 26.214 52.7568 26.478 52.5528 26.694C52.3488 26.898 52.0908 27 51.7788 27C51.4668 27 51.2088 26.898 51.0048 26.694C50.8008 26.478 50.6988 26.214 50.6988 25.902V21.294C50.6988 20.898 50.6448 20.544 50.5368 20.232C50.4408 19.908 50.2608 19.65 49.9968 19.458C49.7328 19.266 49.3548 19.17 48.8628 19.17C48.3828 19.17 47.9748 19.266 47.6388 19.458C47.3148 19.65 47.0628 19.908 46.8828 20.232C46.7148 20.544 46.6308 20.898 46.6308 21.294V25.902C46.6308 26.214 46.5288 26.478 46.3248 26.694C46.1208 26.898 45.8628 27 45.5508 27C45.2388 27 44.9808 26.898 44.7768 26.694C44.5728 26.478 44.4708 26.214 44.4708 25.902V18.468C44.4708 18.156 44.5728 17.898 44.7768 17.694C44.9808 17.478 45.2388 17.37 45.5508 17.37C45.8628 17.37 46.1208 17.478 46.3248 17.694C46.5288 17.898 46.6308 18.156 46.6308 18.468V19.242L46.3608 19.188C46.4688 18.984 46.6248 18.768 46.8288 18.54C47.0328 18.3 47.2728 18.078 47.5488 17.874C47.8248 17.67 48.1368 17.508 48.4848 17.388C48.8328 17.256 49.2108 17.19 49.6188 17.19ZM63.0774 13.68C63.3894 13.68 63.6474 13.782 63.8514 13.986C64.0554 14.19 64.1574 14.454 64.1574 14.778V25.902C64.1574 26.214 64.0554 26.478 63.8514 26.694C63.6474 26.898 63.3894 27 63.0774 27C62.7654 27 62.5074 26.898 62.3034 26.694C62.0994 26.478 61.9974 26.214 61.9974 25.902V25.02L62.3934 25.182C62.3934 25.338 62.3094 25.53 62.1414 25.758C61.9734 25.974 61.7454 26.19 61.4574 26.406C61.1694 26.622 60.8274 26.808 60.4314 26.964C60.0474 27.108 59.6274 27.18 59.1714 27.18C58.3434 27.18 57.5934 26.97 56.9214 26.55C56.2494 26.118 55.7154 25.53 55.3194 24.786C54.9354 24.03 54.7434 23.166 54.7434 22.194C54.7434 21.21 54.9354 20.346 55.3194 19.602C55.7154 18.846 56.2434 18.258 56.9034 17.838C57.5634 17.406 58.2954 17.19 59.0994 17.19C59.6154 17.19 60.0894 17.268 60.5214 17.424C60.9534 17.58 61.3254 17.778 61.6374 18.018C61.9614 18.258 62.2074 18.504 62.3754 18.756C62.5554 18.996 62.6454 19.2 62.6454 19.368L61.9974 19.602V14.778C61.9974 14.466 62.0994 14.208 62.3034 14.004C62.5074 13.788 62.7654 13.68 63.0774 13.68ZM59.4414 25.2C59.9694 25.2 60.4314 25.068 60.8274 24.804C61.2234 24.54 61.5294 24.18 61.7454 23.724C61.9734 23.268 62.0874 22.758 62.0874 22.194C62.0874 21.618 61.9734 21.102 61.7454 20.646C61.5294 20.19 61.2234 19.83 60.8274 19.566C60.4314 19.302 59.9694 19.17 59.4414 19.17C58.9254 19.17 58.4694 19.302 58.0734 19.566C57.6774 19.83 57.3654 20.19 57.1374 20.646C56.9214 21.102 56.8134 21.618 56.8134 22.194C56.8134 22.758 56.9214 23.268 57.1374 23.724C57.3654 24.18 57.6774 24.54 58.0734 24.804C58.4694 25.068 58.9254 25.2 59.4414 25.2ZM67.8102 14.382C67.9782 14.382 68.1522 14.43 68.3322 14.526C68.5242 14.61 68.6682 14.724 68.7642 14.868L73.1382 21.6L72.2382 21.564L76.7202 14.868C76.9482 14.544 77.2422 14.382 77.6022 14.382C77.8902 14.382 78.1482 14.484 78.3762 14.688C78.6042 14.892 78.7182 15.156 78.7182 15.48V25.902C78.7182 26.214 78.6162 26.478 78.4122 26.694C78.2082 26.898 77.9382 27 77.6022 27C77.2662 27 76.9902 26.898 76.7742 26.694C76.5702 26.478 76.4682 26.214 76.4682 25.902V17.424L77.1702 17.586L73.4982 23.184C73.3902 23.316 73.2522 23.43 73.0842 23.526C72.9282 23.622 72.7662 23.664 72.5982 23.652C72.4422 23.664 72.2802 23.622 72.1122 23.526C71.9562 23.43 71.8242 23.316 71.7162 23.184L68.2782 17.748L68.7462 16.794V25.902C68.7462 26.214 68.6502 26.478 68.4582 26.694C68.2662 26.898 68.0142 27 67.7022 27C67.4022 27 67.1562 26.898 66.9642 26.694C66.7722 26.478 66.6762 26.214 66.6762 25.902V15.48C66.6762 15.18 66.7842 14.922 67.0002 14.706C67.2282 14.49 67.4982 14.382 67.8102 14.382ZM85.7802 27.18C84.7602 27.18 83.8722 26.97 83.1162 26.55C82.3722 26.118 81.7962 25.536 81.3882 24.804C80.9922 24.072 80.7942 23.244 80.7942 22.32C80.7942 21.24 81.0102 20.322 81.4422 19.566C81.8862 18.798 82.4622 18.21 83.1702 17.802C83.8782 17.394 84.6282 17.19 85.4202 17.19C86.0322 17.19 86.6082 17.316 87.1482 17.568C87.7002 17.82 88.1862 18.168 88.6062 18.612C89.0262 19.044 89.3562 19.548 89.5962 20.124C89.8482 20.7 89.9742 21.312 89.9742 21.96C89.9622 22.248 89.8482 22.482 89.6322 22.662C89.4162 22.842 89.1642 22.932 88.8762 22.932H82.0002L81.4602 21.132H88.0662L87.6702 21.492V21.006C87.6462 20.658 87.5202 20.346 87.2922 20.07C87.0762 19.794 86.8002 19.578 86.4642 19.422C86.1402 19.254 85.7922 19.17 85.4202 19.17C85.0602 19.17 84.7242 19.218 84.4122 19.314C84.1002 19.41 83.8302 19.572 83.6022 19.8C83.3742 20.028 83.1942 20.334 83.0622 20.718C82.9302 21.102 82.8642 21.588 82.8642 22.176C82.8642 22.824 82.9962 23.376 83.2602 23.832C83.5362 24.276 83.8842 24.618 84.3042 24.858C84.7362 25.086 85.1922 25.2 85.6722 25.2C86.1162 25.2 86.4702 25.164 86.7342 25.092C86.9982 25.02 87.2082 24.936 87.3642 24.84C87.5322 24.732 87.6822 24.642 87.8142 24.57C88.0302 24.462 88.2342 24.408 88.4262 24.408C88.6902 24.408 88.9062 24.498 89.0742 24.678C89.2542 24.858 89.3442 25.068 89.3442 25.308C89.3442 25.632 89.1762 25.926 88.8402 26.19C88.5282 26.454 88.0902 26.688 87.5262 26.892C86.9622 27.084 86.3802 27.18 85.7802 27.18ZM91.3034 25.506C91.1834 25.338 91.1294 25.122 91.1414 24.858C91.1534 24.594 91.3094 24.366 91.6094 24.174C91.8014 24.054 92.0054 24.006 92.2214 24.03C92.4374 24.042 92.6474 24.15 92.8514 24.354C93.1994 24.702 93.5654 24.972 93.9494 25.164C94.3334 25.356 94.8134 25.452 95.3894 25.452C95.5694 25.44 95.7674 25.416 95.9834 25.38C96.1994 25.332 96.3854 25.236 96.5414 25.092C96.7094 24.936 96.7934 24.702 96.7934 24.39C96.7934 24.126 96.7034 23.916 96.5234 23.76C96.3434 23.604 96.1034 23.472 95.8034 23.364C95.5154 23.256 95.1914 23.154 94.8314 23.058C94.4594 22.95 94.0754 22.83 93.6794 22.698C93.2954 22.566 92.9414 22.398 92.6174 22.194C92.2934 21.978 92.0294 21.696 91.8254 21.348C91.6214 21 91.5194 20.562 91.5194 20.034C91.5194 19.434 91.6874 18.924 92.0234 18.504C92.3594 18.084 92.7914 17.76 93.3194 17.532C93.8594 17.304 94.4234 17.19 95.0114 17.19C95.3834 17.19 95.7734 17.238 96.1814 17.334C96.5894 17.418 96.9794 17.562 97.3514 17.766C97.7234 17.958 98.0354 18.216 98.2874 18.54C98.4194 18.72 98.4974 18.936 98.5214 19.188C98.5454 19.44 98.4314 19.668 98.1794 19.872C97.9994 20.016 97.7894 20.082 97.5494 20.07C97.3094 20.046 97.1114 19.962 96.9554 19.818C96.7514 19.554 96.4754 19.344 96.1274 19.188C95.7914 19.032 95.4014 18.954 94.9574 18.954C94.7774 18.954 94.5794 18.978 94.3634 19.026C94.1594 19.062 93.9794 19.152 93.8234 19.296C93.6674 19.428 93.5894 19.644 93.5894 19.944C93.5894 20.22 93.6794 20.442 93.8594 20.61C94.0394 20.766 94.2794 20.898 94.5794 21.006C94.8914 21.102 95.2214 21.198 95.5694 21.294C95.9294 21.39 96.2954 21.504 96.6674 21.636C97.0394 21.768 97.3814 21.942 97.6934 22.158C98.0054 22.374 98.2574 22.656 98.4494 23.004C98.6414 23.34 98.7374 23.772 98.7374 24.3C98.7374 24.912 98.5574 25.434 98.1974 25.866C97.8374 26.298 97.3874 26.628 96.8474 26.856C96.3074 27.072 95.7554 27.18 95.1914 27.18C94.4834 27.18 93.7754 27.06 93.0674 26.82C92.3594 26.568 91.7714 26.13 91.3034 25.506ZM99.987 25.506C99.867 25.338 99.813 25.122 99.825 24.858C99.837 24.594 99.993 24.366 100.293 24.174C100.485 24.054 100.689 24.006 100.905 24.03C101.121 24.042 101.331 24.15 101.535 24.354C101.883 24.702 102.249 24.972 102.633 25.164C103.017 25.356 103.497 25.452 104.073 25.452C104.253 25.44 104.451 25.416 104.667 25.38C104.883 25.332 105.069 25.236 105.225 25.092C105.393 24.936 105.477 24.702 105.477 24.39C105.477 24.126 105.387 23.916 105.207 23.76C105.027 23.604 104.787 23.472 104.487 23.364C104.199 23.256 103.875 23.154 103.515 23.058C103.143 22.95 102.759 22.83 102.363 22.698C101.979 22.566 101.625 22.398 101.301 22.194C100.977 21.978 100.713 21.696 100.509 21.348C100.305 21 100.203 20.562 100.203 20.034C100.203 19.434 100.371 18.924 100.707 18.504C101.043 18.084 101.475 17.76 102.003 17.532C102.543 17.304 103.107 17.19 103.695 17.19C104.067 17.19 104.457 17.238 104.865 17.334C105.273 17.418 105.663 17.562 106.035 17.766C106.407 17.958 106.719 18.216 106.971 18.54C107.103 18.72 107.181 18.936 107.205 19.188C107.229 19.44 107.115 19.668 106.863 19.872C106.683 20.016 106.473 20.082 106.233 20.07C105.993 20.046 105.795 19.962 105.639 19.818C105.435 19.554 105.159 19.344 104.811 19.188C104.475 19.032 104.085 18.954 103.641 18.954C103.461 18.954 103.263 18.978 103.047 19.026C102.843 19.062 102.663 19.152 102.507 19.296C102.351 19.428 102.273 19.644 102.273 19.944C102.273 20.22 102.363 20.442 102.543 20.61C102.723 20.766 102.963 20.898 103.263 21.006C103.575 21.102 103.905 21.198 104.253 21.294C104.613 21.39 104.979 21.504 105.351 21.636C105.723 21.768 106.065 21.942 106.377 22.158C106.689 22.374 106.941 22.656 107.133 23.004C107.325 23.34 107.421 23.772 107.421 24.3C107.421 24.912 107.241 25.434 106.881 25.866C106.521 26.298 106.071 26.628 105.531 26.856C104.991 27.072 104.439 27.18 103.875 27.18C103.167 27.18 102.459 27.06 101.751 26.82C101.043 26.568 100.455 26.13 99.987 25.506ZM117.253 17.19C117.565 17.19 117.823 17.292 118.027 17.496C118.231 17.7 118.333 17.964 118.333 18.288V25.902C118.333 26.214 118.231 26.478 118.027 26.694C117.823 26.898 117.565 27 117.253 27C116.941 27 116.683 26.898 116.479 26.694C116.275 26.478 116.173 26.214 116.173 25.902V25.02L116.569 25.182C116.569 25.338 116.485 25.53 116.317 25.758C116.149 25.974 115.921 26.19 115.633 26.406C115.345 26.622 115.003 26.808 114.607 26.964C114.223 27.108 113.803 27.18 113.347 27.18C112.519 27.18 111.769 26.97 111.097 26.55C110.425 26.118 109.891 25.53 109.495 24.786C109.111 24.03 108.919 23.166 108.919 22.194C108.919 21.21 109.111 20.346 109.495 19.602C109.891 18.846 110.419 18.258 111.079 17.838C111.739 17.406 112.471 17.19 113.275 17.19C113.791 17.19 114.265 17.268 114.697 17.424C115.129 17.58 115.501 17.778 115.813 18.018C116.137 18.258 116.383 18.504 116.551 18.756C116.731 18.996 116.821 19.2 116.821 19.368L116.173 19.602V18.288C116.173 17.976 116.275 17.718 116.479 17.514C116.683 17.298 116.941 17.19 117.253 17.19ZM113.617 25.2C114.145 25.2 114.607 25.068 115.003 24.804C115.399 24.54 115.705 24.18 115.921 23.724C116.149 23.268 116.263 22.758 116.263 22.194C116.263 21.618 116.149 21.102 115.921 20.646C115.705 20.19 115.399 19.83 115.003 19.566C114.607 19.302 114.145 19.17 113.617 19.17C113.101 19.17 112.645 19.302 112.249 19.566C111.853 19.83 111.541 20.19 111.313 20.646C111.097 21.102 110.989 21.618 110.989 22.194C110.989 22.758 111.097 23.268 111.313 23.724C111.541 24.18 111.853 24.54 112.249 24.804C112.645 25.068 113.101 25.2 113.617 25.2ZM124.668 17.19C125.172 17.19 125.634 17.268 126.054 17.424C126.474 17.58 126.834 17.778 127.134 18.018C127.446 18.258 127.686 18.504 127.854 18.756C128.034 18.996 128.124 19.2 128.124 19.368L127.656 19.602V18.288C127.656 17.976 127.758 17.718 127.962 17.514C128.166 17.298 128.424 17.19 128.736 17.19C129.048 17.19 129.306 17.292 129.51 17.496C129.714 17.7 129.816 17.964 129.816 18.288V26.298C129.816 27.342 129.588 28.176 129.132 28.8C128.688 29.436 128.1 29.892 127.368 30.168C126.636 30.456 125.85 30.6 125.01 30.6C124.77 30.6 124.458 30.57 124.074 30.51C123.69 30.45 123.324 30.378 122.976 30.294C122.628 30.21 122.364 30.132 122.184 30.06C121.824 29.904 121.572 29.706 121.428 29.466C121.296 29.238 121.272 28.992 121.356 28.728C121.464 28.38 121.638 28.14 121.878 28.008C122.118 27.888 122.37 27.876 122.634 27.972C122.754 28.008 122.952 28.08 123.228 28.188C123.504 28.296 123.804 28.392 124.128 28.476C124.464 28.572 124.758 28.62 125.01 28.62C125.91 28.62 126.576 28.44 127.008 28.08C127.44 27.72 127.656 27.222 127.656 26.586V25.02L127.872 25.182C127.872 25.338 127.788 25.53 127.62 25.758C127.464 25.974 127.242 26.19 126.954 26.406C126.678 26.622 126.348 26.808 125.964 26.964C125.58 27.108 125.172 27.18 124.74 27.18C123.888 27.18 123.12 26.97 122.436 26.55C121.752 26.118 121.212 25.53 120.816 24.786C120.42 24.03 120.222 23.166 120.222 22.194C120.222 21.21 120.42 20.346 120.816 19.602C121.212 18.846 121.746 18.258 122.418 17.838C123.09 17.406 123.84 17.19 124.668 17.19ZM125.01 19.17C124.47 19.17 123.996 19.302 123.588 19.566C123.18 19.83 122.862 20.19 122.634 20.646C122.406 21.102 122.292 21.618 122.292 22.194C122.292 22.758 122.406 23.268 122.634 23.724C122.862 24.18 123.18 24.54 123.588 24.804C123.996 25.068 124.47 25.2 125.01 25.2C125.562 25.2 126.042 25.068 126.45 24.804C126.858 24.54 127.176 24.18 127.404 23.724C127.632 23.268 127.746 22.758 127.746 22.194C127.746 21.618 127.632 21.102 127.404 20.646C127.176 20.19 126.858 19.83 126.45 19.566C126.042 19.302 125.562 19.17 125.01 19.17ZM136.335 27.18C135.315 27.18 134.427 26.97 133.671 26.55C132.927 26.118 132.351 25.536 131.943 24.804C131.547 24.072 131.349 23.244 131.349 22.32C131.349 21.24 131.565 20.322 131.997 19.566C132.441 18.798 133.017 18.21 133.725 17.802C134.433 17.394 135.183 17.19 135.975 17.19C136.587 17.19 137.163 17.316 137.703 17.568C138.255 17.82 138.741 18.168 139.161 18.612C139.581 19.044 139.911 19.548 140.151 20.124C140.403 20.7 140.529 21.312 140.529 21.96C140.517 22.248 140.403 22.482 140.187 22.662C139.971 22.842 139.719 22.932 139.431 22.932H132.555L132.015 21.132H138.621L138.225 21.492V21.006C138.201 20.658 138.075 20.346 137.847 20.07C137.631 19.794 137.355 19.578 137.019 19.422C136.695 19.254 136.347 19.17 135.975 19.17C135.615 19.17 135.279 19.218 134.967 19.314C134.655 19.41 134.385 19.572 134.157 19.8C133.929 20.028 133.749 20.334 133.617 20.718C133.485 21.102 133.419 21.588 133.419 22.176C133.419 22.824 133.551 23.376 133.815 23.832C134.091 24.276 134.439 24.618 134.859 24.858C135.291 25.086 135.747 25.2 136.227 25.2C136.671 25.2 137.025 25.164 137.289 25.092C137.553 25.02 137.763 24.936 137.919 24.84C138.087 24.732 138.237 24.642 138.369 24.57C138.585 24.462 138.789 24.408 138.981 24.408C139.245 24.408 139.461 24.498 139.629 24.678C139.809 24.858 139.899 25.068 139.899 25.308C139.899 25.632 139.731 25.926 139.395 26.19C139.083 26.454 138.645 26.688 138.081 26.892C137.517 27.084 136.935 27.18 136.335 27.18ZM146.502 30.276C146.322 30.276 146.16 30.228 146.016 30.132C145.104 29.52 144.33 28.806 143.694 27.99C143.07 27.186 142.596 26.304 142.272 25.344C141.948 24.384 141.786 23.382 141.786 22.338C141.786 21.294 141.948 20.292 142.272 19.332C142.596 18.372 143.07 17.49 143.694 16.686C144.33 15.87 145.104 15.156 146.016 14.544C146.16 14.448 146.322 14.4 146.502 14.4C146.79 14.4 147.012 14.508 147.168 14.724C147.324 14.94 147.402 15.144 147.402 15.336C147.402 15.612 147.276 15.852 147.024 16.056C146.34 16.596 145.77 17.202 145.314 17.874C144.858 18.534 144.516 19.242 144.288 19.998C144.072 20.754 143.964 21.534 143.964 22.338C143.964 23.142 144.066 23.928 144.27 24.696C144.486 25.464 144.822 26.184 145.278 26.856C145.734 27.516 146.316 28.104 147.024 28.62C147.276 28.8 147.402 29.04 147.402 29.34C147.402 29.556 147.312 29.766 147.132 29.97C146.964 30.174 146.754 30.276 146.502 30.276ZM148.85 30.276C148.562 30.276 148.34 30.168 148.184 29.952C148.028 29.736 147.95 29.532 147.95 29.34C147.95 29.052 148.076 28.812 148.328 28.62C149.024 28.08 149.594 27.48 150.038 26.82C150.494 26.148 150.83 25.434 151.046 24.678C151.274 23.922 151.388 23.142 151.388 22.338C151.388 21.534 151.28 20.748 151.064 19.98C150.86 19.212 150.53 18.492 150.074 17.82C149.63 17.148 149.048 16.56 148.328 16.056C148.076 15.876 147.95 15.636 147.95 15.336C147.95 15.12 148.034 14.91 148.202 14.706C148.382 14.502 148.598 14.4 148.85 14.4C149.03 14.4 149.192 14.448 149.336 14.544C150.26 15.156 151.034 15.87 151.658 16.686C152.282 17.49 152.756 18.372 153.08 19.332C153.404 20.292 153.566 21.294 153.566 22.338C153.566 23.382 153.404 24.384 153.08 25.344C152.756 26.304 152.282 27.186 151.658 27.99C151.034 28.806 150.26 29.52 149.336 30.132C149.192 30.228 149.03 30.276 148.85 30.276Z" fill="#F8F7E5"/>
</svg>
